# xmcd
#
# Track frame offsets: 
#        182
#        13872
#        27070
#        40350
#        52177
#        69727
#        83122
#        96772
#        112740
#        129250
#
# Disc length: 1941 seconds
#
# Revision: 2
# Processed by: cddbd v1.5.2PL0 Copyright (c) Steve Scherf et al.
# Submitted via: ExactAudioCopyFreeDBPlugin 1.0
#
DISCID=7c07930a
DTITLE=Barbara Mandrell - No Nonsense
DYEAR=1990
DGENRE=Country
TTITLE0=Where Are The Pieces Of My Heart
TTITLE1=Feed The Fire
TTITLE2=Too Soon To Tell
TTITLE3=Straight And Narrow
TTITLE4=I'd Rather Be Used (Than Not Needed At All)
TTITLE5=More Fun Than The Law Allows
TTITLE6=You Gave It To Me
TTITLE7=Men And Trains
TTITLE8=We Can't Go Back
TTITLE9=I'll Leave Something Good Behind
EXTD=
EXTT0=
EXTT1=
EXTT2=
EXTT3=
EXTT4=
EXTT5=
EXTT6=
EXTT7=
EXTT8=
EXTT9=
PLAYORDER=
